<svg xmlns="http://www.w3.org/2000/svg" width="420" height="280" viewBox="0 0 420 280">
  <rect width="420" height="280" rx="6" fill="#111111" stroke="#2a2a2a"/>
  <rect x="0" y="0" width="420" height="28" rx="6" fill="#161616"/>
  <circle cx="18" cy="14" r="4" fill="#3a3a3a"/>
  <circle cx="34" cy="14" r="4" fill="#3a3a3a"/>
  <circle cx="50" cy="14" r="4" fill="#3a3a3a"/>
  <rect x="20" y="48" width="120" height="180" rx="3" fill="#161616"/>
  <rect x="30" y="60" width="100" height="8" rx="2" fill="#2a2a2a"/>
  <rect x="30" y="78" width="80" height="8" rx="2" fill="#2a2a2a"/>
  <rect x="30" y="96" width="90" height="8" rx="2" fill="#2a2a2a"/>
  <rect x="150" y="48" width="250" height="180" rx="3" fill="#0d0d0d"/>
  <rect x="165" y="65" width="180" height="14" rx="2" fill="#d4af37" opacity="0.4"/>
  <rect x="165" y="90" width="210" height="8" rx="2" fill="#2a2a2a"/>
  <rect x="165" y="106" width="150" height="8" rx="2" fill="#2a2a2a"/>
  <rect x="165" y="140" width="90" height="60" rx="3" fill="#1a1a1a"/>
  <rect x="265" y="140" width="90" height="60" rx="3" fill="#1a1a1a"/>
</svg>
